HIERARCHY
ROOT Hips
{
	OFFSET 0.00 0.00 0.00
	CHANNELS 6 Xposition Yposition Zposition Xrotation Yrotation Zrotation
	JOINT Spine
	{
		OFFSET 0.00000 3.24121 0.00000
		CHANNELS 3 Xrotation Yrotation Zrotation
		JOINT Head
		{
			OFFSET 0.00000 18.38296 0.00000
			CHANNELS 3 Xrotation Yrotation Zrotation
			End Site
			{
				OFFSET 0.00000 4.52755 0.00000
			}
		}
		JOINT LeftShoulder
		{
			OFFSET 0.00000 12.82826 0.00000
			CHANNELS 3 Xrotation Yrotation Zrotation
			JOINT LeftArm
			{
				OFFSET 7.74805 0.00000 0.00000
				CHANNELS 3 Xrotation Yrotation Zrotation
				JOINT LeftForeArm
				{
					OFFSET 10.63561 0.00000 0.00000
					CHANNELS 3 Yrotation Zrotation Xrotation
					JOINT LeftHand
					{
						OFFSET 8.34675 0.00000 0.00000
						CHANNELS 3 Xrotation Yrotation Zrotation
						JOINT LeftHandThumb1
						{
							OFFSET 0.00000 0.00000 0.00000
							CHANNELS 3 Xrotation Zrotation Yrotation
							End Site
							{
								OFFSET 0.00000 0.00000 3.93700
							}
						}
						End Site
						{
							OFFSET 3.93700 0.00000 0.00000
						}
					}
				}
			}
		}
		JOINT RightShoulder
		{
			OFFSET 0.00000 12.82826 0.00000
			CHANNELS 3 Xrotation Yrotation Zrotation
			JOINT RightArm
			{
				OFFSET -7.74805 0.00000 0.00000
				CHANNELS 3 Xrotation Yrotation Zrotation
				JOINT RightForeArm
				{
					OFFSET -10.63561 0.00000 0.00000
					CHANNELS 3 Yrotation Zrotation Xrotation
					JOINT RightHand
					{
						OFFSET -8.34675 0.00000 0.00000
						CHANNELS 3 Xrotation Yrotation Zrotation
						JOINT RightHandThumb1
						{
							OFFSET 0.00000 0.00000 0.00000
							CHANNELS 3 Xrotation Zrotation Yrotation
							End Site
							{
								OFFSET 0.00000 0.00000 3.93700
							}
						}
						End Site
						{
							OFFSET -3.93700 0.00000 0.00000
						}
					}
				}
			}
		}
	}
	JOINT LeftUpLeg
	{
		OFFSET 3.43402 0.00000 0.00000
		CHANNELS 3 Xrotation Yrotation Zrotation
		JOINT LeftLeg
		{
			OFFSET 0.00000 -15.71302 0.00000
			CHANNELS 3 Xrotation Yrotation Zrotation
			JOINT LeftFoot
			{
				OFFSET 0.00000 -14.43512 0.00000
				CHANNELS 3 Xrotation Yrotation Zrotation
				JOINT LeftToeBase
				{
					OFFSET 0.00000 -1.27828 4.77061
					CHANNELS 3 Xrotation Yrotation Zrotation
					End Site
					{
						OFFSET 0.00000 0.00000 2.95275
					}
				}
			}
		}
	}
	JOINT RightUpLeg
	{
		OFFSET -3.43402 0.00000 0.00000
		CHANNELS 3 Xrotation Yrotation Zrotation
		JOINT RightLeg
		{
			OFFSET 0.00000 -15.71302 0.00000
			CHANNELS 3 Xrotation Yrotation Zrotation
			JOINT RightFoot
			{
				OFFSET 0.00000 -14.43512 0.00000
				CHANNELS 3 Xrotation Yrotation Zrotation
				JOINT RightToeBase
				{
					OFFSET 0.00000 -1.27828 4.77061
					CHANNELS 3 Xrotation Yrotation Zrotation
					End Site
					{
						OFFSET 0.00000 0.00000 2.95275
					}
				}
			}
		}
	}
}
MOTION
Frames: 7
Frame Time: 0.008333
 0.7045 32.4456 -1.0761 34.6447 2.5733 -1.7516 -39.6868 -7.0957 -0.2988 3.7328 -4.9476 -5.6117 33.6678 35.6819 20.0780 -65.3264 -0.2498 -39.1424 15.2677 0.0000 90.9229 -3.4441 1.9269 60.8076 33.1476 -0.0000 26.2537 30.6547 -33.2353 -21.6777 -50.8774 12.6067 41.2466 -4.1821 -0.0000 -16.3511 -1.1649 12.6259 5.3148 32.8623 0.0000 -24.3270 -28.4924 0.3594 0.1538 -0.4754 0.0000 0.0000 -6.2560 -1.0447 -1.9691 0.8594 0.0000 -0.0000 -26.6261 -6.3830 2.3628 -3.3892 -0.0000 -0.0000 -6.5407 -7.7338 11.0314 14.6546 0.0000 -0.0000
 0.7098 32.4461 -1.0846 34.6377 2.5331 -1.7288 -39.6659 -7.1201 -0.2765 3.7094 -4.9361 -5.6275 33.7922 35.6182 19.8990 -65.3645 -0.1571 -39.4667 15.3436 0.0000 91.0060 -3.2422 1.8260 60.6414 33.1476 -0.0000 26.2537 30.7430 -33.1407 -21.5911 -50.8667 12.6273 41.3929 -4.1991 -0.0000 -16.3457 -1.1791 12.5974 5.3909 32.8623 0.0000 -24.3270 -28.4781 0.3984 0.1441 -0.5116 -0.0000 -0.0000 -6.2346 -1.0469 -1.9420 0.8531 0.0000 -0.0000 -26.6174 -6.3873 2.3522 -3.4345 0.0000 -0.0000 -6.4897 -7.6765 11.0526 14.6262 -0.0000 0.0000
 0.7134 32.4467 -1.0919 34.6213 2.4733 -1.7029 -39.6417 -7.1098 -0.2563 3.7018 -4.9485 -5.6023 33.8931 35.5735 19.7552 -65.4472 -0.0202 -39.8549 15.3939 0.0000 90.7715 -2.8677 1.6306 60.3998 33.1476 -0.0000 26.2537 30.8411 -33.0348 -21.4892 -50.8783 12.6198 41.5519 -4.2474 -0.0000 -16.2581 -1.1903 12.4853 5.4898 32.8623 0.0000 -24.3270 -28.4390 0.4289 0.1475 -0.5692 -0.0000 -0.0000 -6.2053 -1.0361 -1.9806 0.8708 -0.0000 -0.0000 -26.5878 -6.3133 2.3516 -3.5080 -0.0000 -0.0000 -6.4192 -7.6940 11.0885 14.6449 -0.0000 0.0000
 0.7210 32.4477 -1.1006 34.6083 2.4212 -1.6621 -39.6176 -7.1066 -0.2422 3.6953 -4.9498 -5.6129 33.9741 35.5092 19.6240 -65.4500 0.1296 -40.2542 15.4275 0.0000 90.4217 -2.4212 1.3892 60.1725 33.1476 -0.0000 26.2537 30.9706 -32.9420 -21.3856 -50.8209 12.7172 41.7201 -4.3157 -0.0000 -16.3399 -1.1757 12.4239 5.4490 32.8623 0.0000 -24.3270 -28.4187 0.4879 0.1271 -0.6033 0.0000 0.0000 -6.1796 -1.0357 -1.9994 0.8891 -0.0000 -0.0000 -26.5801 -6.2897 2.3258 -3.5525 0.0000 0.0000 -6.3730 -7.6486 11.0955 14.6194 -0.0000 -0.0000
 0.7258 32.4487 -1.1078 34.6068 2.3445 -1.6316 -39.6077 -7.0828 -0.2186 3.6852 -4.9434 -5.5861 34.0339 35.4826 19.5437 -65.5257 0.3811 -40.7009 15.4135 0.0000 90.1268 -1.8581 1.0789 59.8682 33.1476 -0.0000 26.2537 31.0913 -32.8409 -21.2864 -50.7397 12.8071 41.8938 -4.4082 -0.0000 -16.4493 -1.2142 12.3085 5.6782 32.8623 0.0000 -24.3270 -28.3990 0.5500 0.1325 -0.6491 0.0000 0.0000 -6.1646 -1.0320 -2.0646 0.9070 -0.0000 0.0000 -26.6259 -6.3355 2.3291 -3.4951 0.0000 -0.0000 -6.3737 -7.5283 11.0596 14.6094 -0.0000 0.0000
 0.7324 32.4493 -1.1131 34.5225 2.3005 -1.6097 -39.5057 -7.0837 -0.1913 3.6612 -4.9406 -5.5854 34.1815 35.4512 19.4065 -65.5390 0.5678 -41.1590 15.3818 0.0000 89.8772 -1.3932 0.8171 59.6136 33.1476 -0.0000 26.2537 31.2180 -32.7703 -21.1859 -50.7704 12.8085 42.1098 -4.4802 -0.0000 -16.4624 -1.2314 12.2629 5.7790 32.8623 0.0000 -24.3270 -28.2957 0.5560 0.1293 -0.6969 0.0000 0.0000 -6.1474 -1.0069 -2.0487 0.9120 -0.0000 0.0000 -26.5392 -6.3290 2.3213 -3.5350 -0.0000 -0.0000 -6.3210 -7.4836 11.1190 14.5907 -0.0000 0.0000
 0.7369 32.4487 -1.1180 34.3971 2.2140 -1.5920 -39.3555 -7.0661 -0.1461 3.6274 -4.9125 -5.5328 34.3913 35.4222 19.2314 -65.5929 0.7048 -41.6016 15.4584 0.0000 90.2362 -1.5181 0.8936 59.5255 33.1476 -0.0000 26.2537 31.3542 -32.6631 -21.0569 -50.7921 12.8379 42.3223 -4.6094 -0.0000 -16.5772 -1.2494 12.2919 5.8493 32.8623 0.0000 -24.3270 -28.1483 0.6314 0.1567 -0.7427 -0.0000 -0.0000 -6.1546 -1.0084 -2.0634 0.9227 0.0000 0.0000 -26.4223 -6.3278 2.3457 -3.5517 -0.0000 0.0000 -6.2713 -7.4081 11.1277 14.5510 0.0000 -0.0000
